<?xml version="1.0" encoding="UTF-8" standalone="no"?>
<!-- Created with Inkscape (http://www.inkscape.org/) -->

<svg
   xmlns:dc="http://purl.org/dc/elements/1.1/"
   xmlns:cc="http://creativecommons.org/ns#"
   xmlns:rdf="http://www.w3.org/1999/02/22-rdf-syntax-ns#"
   xmlns:svg="http://www.w3.org/2000/svg"
   xmlns="http://www.w3.org/2000/svg"
   xmlns:sodipodi="http://sodipodi.sourceforge.net/DTD/sodipodi-0.dtd"
   xmlns:inkscape="http://www.inkscape.org/namespaces/inkscape"
   width="100"
   height="100"
   viewBox="0 0 100 100"
   id="svg2"
   version="1.1"
   inkscape:version="0.91 r13725"
   sodipodi:docname="fan-ceiling.svg">
  <defs
     id="defs4" />
  <sodipodi:namedview
     id="base"
     pagecolor="#ffffff"
     bordercolor="#666666"
     borderopacity="1.0"
     inkscape:pageopacity="0.0"
     inkscape:pageshadow="2"
     inkscape:zoom="2.56"
     inkscape:cx="3.9088131"
     inkscape:cy="47.30818"
     inkscape:document-units="px"
     inkscape:current-layer="layer1"
     showgrid="false"
     units="px"
     inkscape:window-width="1360"
     inkscape:window-height="719"
     inkscape:window-x="0"
     inkscape:window-y="1"
     inkscape:window-maximized="1" />
  <metadata
     id="metadata7">
    <rdf:RDF>
      <cc:Work
         rdf:about="">
        <dc:format>image/svg+xml</dc:format>
        <dc:type
           rdf:resource="http://purl.org/dc/dcmitype/StillImage" />
        <dc:title></dc:title>
      </cc:Work>
    </rdf:RDF>
  </metadata>
  <g
     inkscape:label="Camada 1"
     inkscape:groupmode="layer"
     id="layer1"
     transform="translate(0,-952.36216)">
    <path
       sodipodi:nodetypes="ccssscssscccscsccsccccssssscccsscssssccccsscscsscscc"
       style="fill:#000000"
       d="m 44.763067,1024.3626 c -2.285787,-0.7472 -3.549022,-1.5469 -5.542719,-3.509 -1.420263,-1.3977 -2.65714,-2.5413 -2.748647,-2.5413 -0.09151,0 -0.857017,0.3022 -1.701091,0.6714 -1.206451,0.5278 -6.220161,0.7544 -23.437148,1.1363 -1.097285,0.025 -6.7488961,0.3387 -6.3091251,-0.9806 0.348033,-1.0442 5.8997131,-1.5648 7.0809461,-1.5677 19.250668,-0.047 24.081993,-0.6145 20.79917,-1.337 -0.905248,-0.1991 -5.579387,-1.4734 -15.379952,-2.9318 -3.345773,-0.4979 -3.707172,-0.6734 -2.94839,-1.4321 0.385327,-0.3854 1.076203,-0.3835 2.629334,0.014 1.15869,0.2917 3.85729,0.7782 5.349945,0.7872 7.219007,1.9868 -8.352193,-1.2551 -0.76951,-0.02 12.140518,1.9777 13.937414,2.171 15.048715,1.6194 0.694103,-0.3445 2.531892,-0.6263 4.08404,-0.6263 2.631577,0 2.818235,-0.071 2.76608,-1.0516 -0.03084,-0.5784 0.286997,-1.8334 0.706252,-2.7891 0.419209,-0.9557 0.762194,-2.3891 0.762194,-3.1854 0,-2.0129 0.676763,-3.0743 2.326867,-3.6495 l 1.411898,-0.4921 -0.0047,-6.21668 c -0.0047,-5.43853 -0.120249,-6.39225 -0.939178,-7.61871 -0.514828,-0.77114 -1.160046,-2.24332 -1.433769,-3.27146 -0.273725,-1.02814 -1.007785,-2.65348 -1.631223,-3.61194 -0.62344,-0.95831 -1.133548,-1.8521 -1.133548,-1.98617 0,-0.1338 2.733973,-0.24376 6.075494,-0.24376 3.34152,0 6.075493,0.11985 6.075493,0.26731 0,0.14704 -0.508566,1.14591 -1.130182,2.2199 -0.621569,1.07399 -1.359135,2.82184 -1.639028,3.88441 -0.279893,1.06242 -0.822856,2.19231 -1.206593,2.51077 -1.037414,0.86103 -1.034282,14.48493 0.0047,14.48493 1.260339,0 2.438937,1.7004 2.786877,4.0208 0.187733,1.2518 0.647274,2.8677 1.021196,3.5909 0.37397,0.723 0.549739,1.7247 0.390654,2.226 -0.266853,0.8407 -0.05024,0.9114 2.79641,0.9114 1.80643,0 3.514812,0.2666 4.120774,0.643 0.907117,0.5636 2.764669,0.5097 14.821772,-1.6218 4.112019,-0.727 3.317515,-0.5388 4.989958,-0.5465 1.67249,-0.014 1.460961,0.1618 2.352984,-0.093 1.739835,-0.4989 3.642955,-0.1791 2.965445,0.4984 -1.68156,0.9709 -1.77016,0.6162 -3.435315,0.8709 -1.665151,0.2548 -7.128563,1.1026 -12.140844,1.8838 -5.012283,0.7813 2.82589,-0.3758 0.126967,0.017 -2.698921,0.3925 -5.388915,0.8187 -5.977771,0.9473 -3.301703,0.7204 1.58724,1.1243 21.032143,1.323 2.28314,0.024 7.83071,0.3706 7.16418,1.4491 -0.72359,1.1707 -1.97109,0.9752 -6.62533,1.1009 -18.749111,0.5065 -22.121106,-0.5857 -23.422756,-1.2434 l -1.520369,-0.7682 -2.1747,2.2694 c -4.219757,4.4037 -10.510837,5.9326 -16.438882,3.9949 z"
       id="path3428"
       inkscape:connector-curvature="0" />
  </g>
</svg>
