<?xml version="1.0" encoding="UTF-8" standalone="no"?>
<!-- Created with Inkscape (http://www.inkscape.org/) -->

<svg
   xmlns:dc="http://purl.org/dc/elements/1.1/"
   xmlns:cc="http://creativecommons.org/ns#"
   xmlns:rdf="http://www.w3.org/1999/02/22-rdf-syntax-ns#"
   xmlns:svg="http://www.w3.org/2000/svg"
   xmlns="http://www.w3.org/2000/svg"
   xmlns:sodipodi="http://sodipodi.sourceforge.net/DTD/sodipodi-0.dtd"
   xmlns:inkscape="http://www.inkscape.org/namespaces/inkscape"
   width="100"
   height="100"
   viewBox="0 0 100 100"
   id="svg2"
   version="1.1"
   inkscape:version="0.91 r13725"
   sodipodi:docname="fan-common.svg">
  <defs
     id="defs4" />
  <sodipodi:namedview
     id="base"
     pagecolor="#ffffff"
     bordercolor="#666666"
     borderopacity="1.0"
     inkscape:pageopacity="0.0"
     inkscape:pageshadow="2"
     inkscape:zoom="2.56"
     inkscape:cx="-27.815224"
     inkscape:cy="77.440422"
     inkscape:document-units="px"
     inkscape:current-layer="layer1"
     showgrid="false"
     units="px"
     inkscape:window-width="1360"
     inkscape:window-height="719"
     inkscape:window-x="0"
     inkscape:window-y="1"
     inkscape:window-maximized="1" />
  <metadata
     id="metadata7">
    <rdf:RDF>
      <cc:Work
         rdf:about="">
        <dc:format>image/svg+xml</dc:format>
        <dc:type
           rdf:resource="http://purl.org/dc/dcmitype/StillImage" />
        <dc:title />
      </cc:Work>
    </rdf:RDF>
  </metadata>
  <g
     inkscape:label="Camada 1"
     inkscape:groupmode="layer"
     id="layer1"
     transform="translate(0,-952.36216)">
    <g
       id="g3336"
       transform="translate(-0.02911451,0.9408135)">
      <path
         inkscape:connector-curvature="0"
         id="path3430"
         d="m 48.688826,955.7962 c -6.262932,-0.0622 -10.674353,2.41695 -14.129635,7.78898 -6.257027,9.72775 -5.107326,19.23799 2.825638,23.37242 l 2.663387,1.38803 -1.378625,2.36161 c -0.758113,1.29877 -1.504691,3.75656 -1.658909,5.46216 -0.238331,2.6361 -0.537429,3.1456 -2.000922,3.3917 -4.995816,0.8413 -7.13791,0.3155 -12.170323,-2.988 -5.628892,-3.69503 -7.87611,-3.89443 -10.689732,-0.9441 -2.221607,2.3294 -2.583257,5.5693 -1.410828,12.6183 1.379242,8.2914 3.639712,12.8476 8.129615,16.3853 4.103397,3.2326 8.251837,4.1721 14.023756,3.1743 5.865919,-1.0139 9.996438,-3.3636 12.286982,-6.9883 1.890855,-2.9923 2.218585,-4.3106 1.996871,-8.0238 -0.09688,-1.6214 0.138357,-1.7683 3.954878,-2.4648 2.389626,-0.4361 4.92214,-1.3753 6.158219,-2.2839 1.154645,-0.8488 2.220439,-1.5638 2.36834,-1.5892 0.147902,-0.025 0.916383,0.9713 1.708553,2.2154 1.662411,2.6113 1.709514,4.738 0.225285,10.3585 -1.216991,4.6085 -0.567503,6.6286 2.753267,8.5669 2.862031,1.6705 6.028721,1.2175 10.666937,-1.5275 12.679595,-7.5039 17.385175,-16.1176 13.793045,-25.2526 -1.747758,-4.4447 -3.999439,-7.56655 -7.489946,-10.38391 -4.847434,-3.91258 -10.989105,-3.90091 -16.056743,0.0308 l -2.818978,2.18861 -1.971397,-2.75049 c -1.08447,-1.51265 -2.850769,-3.22491 -3.923979,-3.80471 l -1.951278,-1.05405 1.909668,-3.37151 c 2.089566,-3.68943 3.775185,-4.94858 8.694236,-6.49351 6.421956,-2.01692 8.151588,-8.11375 3.430495,-12.09122 -3.551824,-2.99249 -10.247129,-5.98903 -15.29506,-6.84623 -1.653485,-0.28076 -3.19752,-0.43086 -4.642817,-0.44521 z m 1.145306,31.36924 A 10.051863,10.051863 0 0 1 59.88557,997.2168 10.051863,10.051863 0 0 1 49.834132,1007.2696 10.051863,10.051863 0 0 1 39.78139,997.2168 10.051863,10.051863 0 0 1 49.834132,987.16544 Z m 0,2.46626 a 7.5863124,7.5863124 0 0 0 -7.586488,7.5851 7.5863124,7.5863124 0 0 0 7.586488,7.5865 7.5863124,7.5863124 0 0 0 7.585184,-7.5865 7.5863124,7.5863124 0 0 0 -7.585184,-7.5851 z m 0,2.65405 a 4.9311032,4.9311032 0 0 1 4.931135,4.93105 4.9311032,4.9311032 0 0 1 -4.931135,4.9311 4.9311032,4.9311032 0 0 1 -4.931203,-4.9311 4.9311032,4.9311032 0 0 1 4.931203,-4.93105 z"
         style="fill:#000000" />
      <rect
         ry="0.30000001"
         rx="0.30000001"
         y="1037.6564"
         x="19.921833"
         height="9.3912621"
         width="60.214561"
         id="rect3444"
         style="fill:#000000;fill-opacity:1;stroke:none" />
      <path
         inkscape:connector-curvature="0"
         id="rect3448"
         d="m 53.756424,1011.0386 c -0.577087,0.1604 -1.167413,0.2995 -1.749621,0.4058 -3.637087,0.6637 -3.861455,0.8038 -3.76913,2.3489 0.0868,1.4537 0.07686,2.5155 -0.08004,3.4676 l 0,21.7102 c 0,0.1105 0.07959,0.201 0.178684,0.201 l 5.241418,0 c 0.09909,0 0.178684,-2.7804 0.178684,-0.201 l 0,-27.9325 z"
         style="fill:#000000;fill-opacity:1;stroke:none" />
    </g>
  </g>
</svg>
