<?xml version="1.0" encoding="UTF-8" standalone="no"?>
<!-- Generator: Adobe Illustrator 18.1.1, SVG Export Plug-In . SVG Version: 6.00 Build 0)  -->

<svg
   xmlns:dc="http://purl.org/dc/elements/1.1/"
   xmlns:cc="http://creativecommons.org/ns#"
   xmlns:rdf="http://www.w3.org/1999/02/22-rdf-syntax-ns#"
   xmlns:svg="http://www.w3.org/2000/svg"
   xmlns="http://www.w3.org/2000/svg"
   xmlns:sodipodi="http://sodipodi.sourceforge.net/DTD/sodipodi-0.dtd"
   xmlns:inkscape="http://www.inkscape.org/namespaces/inkscape"
   version="1.1"
   id="Capa_1"
   x="0px"
   y="0px"
   viewBox="0 0 100 100"
   xml:space="preserve"
   inkscape:version="0.91 r13725"
   sodipodi:docname="circular-fan.svg"
   width="100"
   height="100"><metadata
     id="metadata47"><rdf:RDF><cc:Work
         rdf:about=""><dc:format>image/svg+xml</dc:format><dc:type
           rdf:resource="http://purl.org/dc/dcmitype/StillImage" /><dc:title></dc:title></cc:Work></rdf:RDF></metadata><defs
     id="defs45" /><sodipodi:namedview
     pagecolor="#ffffff"
     bordercolor="#666666"
     borderopacity="1"
     objecttolerance="10"
     gridtolerance="10"
     guidetolerance="10"
     inkscape:pageopacity="0"
     inkscape:pageshadow="2"
     inkscape:window-width="1360"
     inkscape:window-height="719"
     id="namedview43"
     showgrid="false"
     showguides="true"
     inkscape:guide-bbox="true"
     inkscape:zoom="2.8284271"
     inkscape:cx="48.336489"
     inkscape:cy="49.872605"
     inkscape:window-x="0"
     inkscape:window-y="1"
     inkscape:window-maximized="1"
     inkscape:current-layer="Capa_1" /><g
     id="g13"
     transform="translate(0,78.728001)" /><g
     id="g15"
     transform="translate(0,78.728001)" /><g
     id="g17"
     transform="translate(0,78.728001)" /><g
     id="g19"
     transform="translate(0,78.728001)" /><g
     id="g21"
     transform="translate(0,78.728001)" /><g
     id="g23"
     transform="translate(0,78.728001)" /><g
     id="g25"
     transform="translate(0,78.728001)" /><g
     id="g27"
     transform="translate(0,78.728001)" /><g
     id="g29"
     transform="translate(0,78.728001)" /><g
     id="g31"
     transform="translate(0,78.728001)" /><g
     id="g33"
     transform="translate(0,78.728001)" /><g
     id="g35"
     transform="translate(0,78.728001)" /><g
     id="g37"
     transform="translate(0,78.728001)" /><g
     id="g39"
     transform="translate(0,78.728001)" /><g
     id="g41"
     transform="translate(0,78.728001)" /><g
     id="g3424"
     transform="matrix(7.2632295,0,0,7.2632295,-24.050484,-26.790162)"><path
       inkscape:connector-curvature="0"
       id="path9"
       d="m 4.0518977,10.787494 c -0.1435159,0.296926 -0.00446,0.959578 0.5818246,2.266968 1.9074317,3.225943 4.173244,3.450393 5.6039077,-1.115461 0.227234,-0.01595 0.448206,-0.07695 0.650494,-0.182139 3.48054,-0.784565 1.083359,6.928861 4.620413,2.032232 1.844038,-3.271052 0.898569,-5.3493783 -3.794838,-4.2902102 -0.05088,0.012533 -0.100453,0.024135 -0.147745,0.036314 C 11.462235,9.3450282 11.365876,9.1917352 11.232512,9.0231551 9.0825243,6.3285801 16.703521,4.6910078 10.745309,4.0840766 7.0445461,4.1233606 5.7030578,5.9284917 8.7926202,9.3688918 8.7545058,9.4233648 8.7169754,9.4816906 8.6849791,9.5416925 8.5184098,9.8540557 8.465599,10.19673 8.5089129,10.523551 7.4545656,12.304689 4.4824456,9.8967159 4.0518977,10.787494 Z M 8.9944956,9.6004973 A 1.3145444,1.3145444 0 0 1 10.77284,9.0591437 1.3145444,1.3145444 0 0 1 11.314194,10.837488 1.3145444,1.3145444 0 0 1 9.5349301,11.380565 1.3145444,1.3145444 0 0 1 8.9944956,9.6004973 Z m 0.3998292,0.213211 A 0.86141944,0.86141944 0 0 0 9.7481411,10.980736 0.86141944,0.86141944 0 0 0 10.914365,10.624277 0.86141944,0.86141944 0 0 0 10.559629,9.4589729 0.86141944,0.86141944 0 0 0 9.3943248,9.8137083 Z m 0.3704187,0.2351567 a 0.42391944,0.42391944 0 0 1 9.189e-4,-0.0017 0.42391944,0.42391944 0 0 1 0.014704,-0.02757 A 0.42391944,0.42391944 0 0 1 10.35377,9.8450148 0.42391944,0.42391944 0 0 1 10.528322,10.418419 0.42391944,0.42391944 0 0 1 9.954,10.594694 0.42391944,0.42391944 0 0 1 9.7647435,10.048865 Z"
       style="fill:#010002" /><rect
       ry="0.30000001"
       rx="0.30000001"
       y="15.935832"
       x="7.6598668"
       height="1.125"
       width="5.2475557"
       id="rect3397"
       style="fill:#000000;fill-opacity:1;stroke:none" /><path
       sodipodi:nodetypes="cccccsc"
       inkscape:connector-curvature="0"
       id="rect3419"
       d="m 10.715342,12.029182 c -0.115266,0.03374 -0.232859,0.05794 -0.353516,0.06641 -0.09474,0.302347 -0.19516,0.580941 -0.296875,0.841797 l 0,3.212087 0.683594,0 0,-3.983571 c 0,-0.05331 -0.01852,-0.09342 -0.0332,-0.136723 z"
       style="fill:#000000;fill-opacity:1;stroke:none" /></g></svg>