<?xml version="1.0" encoding="UTF-8" standalone="no"?>
<svg
   xmlns:dc="http://purl.org/dc/elements/1.1/"
   xmlns:cc="http://creativecommons.org/ns#"
   xmlns:rdf="http://www.w3.org/1999/02/22-rdf-syntax-ns#"
   xmlns:svg="http://www.w3.org/2000/svg"
   xmlns="http://www.w3.org/2000/svg"
   xmlns:sodipodi="http://sodipodi.sourceforge.net/DTD/sodipodi-0.dtd"
   xmlns:inkscape="http://www.inkscape.org/namespaces/inkscape"
   version="1"
   viewBox="0 0 50 50"
   enable-background="new 0 0 24 24"
   width="100"
   height="100"
   id="svg2"
   inkscape:version="0.91 r13725"
   sodipodi:docname="lamp.svg"
   inkscape:export-filename="/Users/mauro/Downloads/icons8-Ideia.png"
   inkscape:export-xdpi="90"
   inkscape:export-ydpi="90">
  <metadata
     id="metadata10">
    <rdf:RDF>
      <cc:Work
         rdf:about="">
        <dc:format>image/svg+xml</dc:format>
        <dc:type
           rdf:resource="http://purl.org/dc/dcmitype/StillImage" />
        <dc:title />
      </cc:Work>
    </rdf:RDF>
  </metadata>
  <defs
     id="defs8" />
  <sodipodi:namedview
     pagecolor="#ffffff"
     bordercolor="#666666"
     borderopacity="1"
     objecttolerance="10"
     gridtolerance="10"
     guidetolerance="10"
     inkscape:pageopacity="0"
     inkscape:pageshadow="2"
     inkscape:window-width="1366"
     inkscape:window-height="744"
     id="namedview6"
     showgrid="false"
     inkscape:zoom="4.92"
     inkscape:cx="48.992761"
     inkscape:cy="101.07592"
     inkscape:window-x="0"
     inkscape:window-y="24"
     inkscape:window-maximized="1"
     inkscape:current-layer="svg2" />
  <g
     id="g3341"
     inkscape:export-filename="/home/marssola/Developers/Smarthings/smarthouse/img/icons/dark/lamp50x50.png"
     inkscape:export-xdpi="45"
     inkscape:export-ydpi="45">
    <rect
       y="-1.7763568e-15"
       x="0"
       height="50"
       width="50"
       id="rect3333"
       style="fill:none;fill-rule:evenodd;stroke:none;stroke-width:0.5px;stroke-linecap:butt;stroke-linejoin:miter;stroke-opacity:1" />
    <path
       inkscape:export-ydpi="90"
       inkscape:export-xdpi="90"
       inkscape:connector-curvature="0"
       id="path4"
       d="M 24.796087,2.5051335 C 16.472036,2.7301115 9.4837712,9.4512163 9.2587968,17.550293 9.0338234,22.949677 11.536662,27.913173 15.5862,30.837839 c 1.799795,1.349845 2.67157,3.388676 2.67157,5.413446 l 13.49846,0 c 0,-2.02477 0.885837,-4.063601 2.460656,-5.413446 4.049539,-2.699692 6.538317,-7.410093 6.538317,-12.584502 0,-8.7739985 -7.185117,-15.9731769 -15.959116,-15.7482035 z M 22.036638,4.636239 C 17.54245,5.929808 11.763433,12.555 11.682105,16.726412 11.477209,16.216383 11.345757,15.682078 11.291036,15.133576 10.940921,11.501314 16.553329,5.2680198 20.617365,4.7065446 21.089483,4.6419535 21.5656,4.6189832 22.036638,4.636239 Z m -3.778868,33.864789 0,0.916152 13.49846,0 0,-0.916152 -13.49846,0 z m 0,1.520333 0,0.481144 13.49846,0 0,-0.481144 -13.49846,0 z m 0.02416,1.085325 c 0.0088,0.162074 0.01269,0.329023 0.03296,0.478951 l 13.384215,0 c 0.02025,-0.149926 0.02418,-0.31687 0.03296,-0.478951 l -13.450126,0 z m 0.164776,1.085327 c 0.04576,0.168261 0.10009,0.328234 0.16258,0.478946 l 12.795414,0 c 0.0625,-0.150712 0.116809,-0.310687 0.162592,-0.478946 l -13.120574,0 z m 0.483342,1.085325 c 0.116323,0.172805 0.243202,0.334232 0.386675,0.478946 l 11.380539,0 c 0.143468,-0.144728 0.270351,-0.306145 0.386676,-0.478946 l -12.15389,0 z m 1.195176,1.085325 c 0.352286,0.198993 0.746098,0.356864 1.175405,0.478949 l 7.412728,0 c 0.429307,-0.122096 0.823118,-0.279965 1.175404,-0.478949 l -9.763537,0 z m 1.827918,1.085325 c 0.07645,0.166168 0.166956,0.326319 0.268036,0.478948 l 5.57163,0 c 0.101083,-0.152625 0.191591,-0.312791 0.268036,-0.478948 l -6.107702,0 z m 0.782138,1.085325 C 23.341964,47.119106 24.142582,47.5 25.007001,47.5 c 0.864417,0 1.665035,-0.380894 2.271712,-0.966687 l -4.543424,0 z"
       style="fill:#ffffff" />
  </g>
</svg>
