<?xml version="1.0" encoding="UTF-8" standalone="no"?>
<!-- Created with Inkscape (http://www.inkscape.org/) -->

<svg
   xmlns:dc="http://purl.org/dc/elements/1.1/"
   xmlns:cc="http://creativecommons.org/ns#"
   xmlns:rdf="http://www.w3.org/1999/02/22-rdf-syntax-ns#"
   xmlns:svg="http://www.w3.org/2000/svg"
   xmlns="http://www.w3.org/2000/svg"
   xmlns:sodipodi="http://sodipodi.sourceforge.net/DTD/sodipodi-0.dtd"
   xmlns:inkscape="http://www.inkscape.org/namespaces/inkscape"
   width="50"
   height="50"
   viewBox="0 0 13.229166 13.229167"
   version="1.1"
   id="svg5571"
   inkscape:version="0.92.1 r15371"
   sodipodi:docname="switch.svg">
  <defs
     id="defs5565" />
  <sodipodi:namedview
     id="base"
     pagecolor="#ffffff"
     bordercolor="#666666"
     borderopacity="1.0"
     inkscape:pageopacity="0.0"
     inkscape:pageshadow="2"
     inkscape:zoom="5.6"
     inkscape:cx="51.547129"
     inkscape:cy="48.461941"
     inkscape:document-units="mm"
     inkscape:current-layer="layer1"
     showgrid="false"
     units="px"
     inkscape:window-width="1366"
     inkscape:window-height="744"
     inkscape:window-x="0"
     inkscape:window-y="24"
     inkscape:window-maximized="1" />
  <metadata
     id="metadata5568">
    <rdf:RDF>
      <cc:Work
         rdf:about="">
        <dc:format>image/svg+xml</dc:format>
        <dc:type
           rdf:resource="http://purl.org/dc/dcmitype/StillImage" />
        <dc:title></dc:title>
      </cc:Work>
    </rdf:RDF>
  </metadata>
  <g
     inkscape:label="Camada 1"
     inkscape:groupmode="layer"
     id="layer1"
     transform="translate(0,-283.77082)">
    <path
       style="opacity:1;fill:#333333;fill-opacity:1;stroke:none;stroke-width:0.18901205;stroke-miterlimit:4;stroke-dasharray:none;stroke-opacity:1"
       d="m 1.3757904,284.43228 c -0.39575896,0 -0.71433207,0.31857 -0.71433207,0.71434 v 10.47742 c 0,0.39577 0.31857311,0.71449 0.71433207,0.71449 H 11.853381 c 0.395768,0 0.714327,-0.31872 0.714327,-0.71449 v -10.47742 c 0,-0.39577 -0.318559,-0.71433 -0.714327,-0.71433 z m 3.8814374,1.78584 h 2.7145685 c 0.059365,0 0.1158859,0.0174 0.1672018,0.0489 0.025669,0.0158 0.049953,0.0351 0.072756,0.0575 0.01143,0.0113 0.02248,0.0233 0.03305,0.036 0.01062,0.0127 0.02062,0.0261 0.03034,0.0403 0.07749,0.113 0.125359,0.26924 0.125359,0.44239 v 0.69603 1.59757 2.49696 1.59757 0.69603 c 0,0.17314 -0.04787,0.32939 -0.125359,0.44239 -0.0097,0.0142 -0.01972,0.0276 -0.03034,0.0403 -0.03172,0.0381 -0.06734,0.0698 -0.1058231,0.0935 -0.02567,0.0158 -0.052502,0.028 -0.080448,0.0363 -0.027956,0.008 -0.057079,0.0126 -0.086759,0.0126 H 5.2572087 c -0.02967,0 -0.058488,-0.004 -0.086449,-0.0126 -0.027956,-0.008 -0.05494,-0.0205 -0.080596,-0.0363 -0.038481,-0.0237 -0.074095,-0.0554 -0.105837,-0.0935 -0.010573,-0.0127 -0.020717,-0.0261 -0.030432,-0.0403 -0.00967,-0.0142 -0.018812,-0.0287 -0.027527,-0.0442 v -1.3e-4 c -0.00872,-0.0154 -0.017097,-0.0314 -0.024765,-0.048 v -1.8e-4 c -0.00772,-0.0166 -0.014811,-0.0337 -0.021384,-0.0514 v -1.9e-4 c -0.00657,-0.0177 -0.012573,-0.0358 -0.018002,-0.0545 v -1.2e-4 c -0.00543,-0.0187 -0.010144,-0.0378 -0.014335,-0.0574 v -1.3e-4 c -0.00429,-0.0196 -0.00776,-0.0395 -0.01062,-0.0598 v -1.3e-4 c -0.00286,-0.0204 -0.005,-0.041 -0.00643,-0.062 v -1.2e-4 c -0.00143,-0.0211 -0.0019,-0.0424 -0.0019,-0.064 v -1.3e-4 -0.69603 -1.59757 -2.49695 -1.59757 -0.69604 -1.5e-4 c 0,-0.0216 9.525e-4,-0.043 0.0019,-0.064 v -1.5e-4 c 0.00143,-0.0211 0.00333,-0.0417 0.00643,-0.062 v -1.5e-4 c 0.00286,-0.0204 0.00652,-0.0403 0.01062,-0.0598 v -1.5e-4 c 0.00429,-0.0196 0.00891,-0.0387 0.014335,-0.0574 v -1.6e-4 c 0.00543,-0.0187 0.01143,-0.0368 0.018002,-0.0544 v -1.5e-4 c 0.00657,-0.0177 0.013716,-0.0348 0.021384,-0.0514 v -1.4e-4 c 0.00772,-0.0166 0.01605,-0.0326 0.024765,-0.048 0.00872,-0.0154 0.017859,-0.0301 0.027527,-0.0443 0.00972,-0.0142 0.01986,-0.0275 0.030432,-0.0403 0.010573,-0.0127 0.021527,-0.0248 0.032957,-0.036 0.022765,-0.0224 0.047244,-0.0418 0.072904,-0.0575 0.051321,-0.0316 0.1076849,-0.0489 0.1670495,-0.0489 z m 0.1210532,0.1486 c -0.2162985,0 -0.3905441,0.26871 -0.3905441,0.60267 v 4.61997 c 0.027765,0.29163 0.1896523,0.51437 0.3870056,0.51437 h 2.4796907 c 0.197354,0 0.3593123,-0.22274 0.3870163,-0.51437 v -4.61997 c 0,-0.33396 -0.1742508,-0.60267 -0.3905504,-0.60267 z m -0.3905441,6.76329 v 0.67127 c 0,0.33396 0.1742456,0.60282 0.3905441,0.60282 h 2.4726181 c 0.2162996,0 0.3905504,-0.26886 0.3905504,-0.60282 v -0.67127 c -0.02772,0.29163 -0.1896623,0.51453 -0.3870163,0.51453 H 5.3747425 c -0.1973533,0 -0.3593116,-0.2229 -0.3870056,-0.51453 z"
       id="path5277"
       inkscape:connector-curvature="0" />
  </g>
</svg>
