<?xml version="1.0" encoding="iso-8859-1"?>
<!-- Generator: Adobe Illustrator 19.0.0, SVG Export Plug-In . SVG Version: 6.00 Build 0)  -->
<svg version="1.1" id="Layer_1" xmlns="http://www.w3.org/2000/svg" xmlns:xlink="http://www.w3.org/1999/xlink" x="0px" y="0px"
	 viewBox="0 0 512 512" style="enable-background:new 0 0 512 512;" xml:space="preserve">
<g>
	<g>
		<path d="M382.989,52.33c-34.34-34.092-79.884-52.65-128.316-52.325C156.311,0.713,76.049,81.32,75.755,179.695
			c-0.095,31.88,8.243,63.233,24.115,90.669c15.391,26.608,37.484,49.002,63.886,64.759c13.392,7.992,21.712,22.615,21.712,38.161
			v21.381c-6.236,3.621-10.449,10.355-10.449,18.07c0,4.941,1.732,9.48,4.61,13.061c-2.878,3.581-4.61,8.12-4.61,13.061
			c0,4.941,1.732,9.48,4.61,13.061c-2.878,3.581-4.61,8.12-4.61,13.061c0,11.523,9.375,20.898,20.898,20.898h7.756L214.123,512
			h83.755l10.449-26.122h7.755c11.523,0,20.898-9.375,20.898-20.898c0-4.941-1.732-9.48-4.61-13.061
			c2.878-3.581,4.61-8.12,4.61-13.061c0-4.941-1.732-9.48-4.61-13.061c2.878-3.581,4.61-8.12,4.61-13.061
			c0-7.716-4.213-14.451-10.449-18.07v-21.38c0-15.524,8.394-30.192,21.906-38.278c26.274-15.725,48.273-38.034,63.622-64.518
			c15.824-27.305,24.186-58.51,24.186-90.244C436.245,131.854,417.332,86.426,382.989,52.33z M287.265,496.326h-62.531l-4.18-10.449
			h70.89L287.265,496.326z M316.081,470.204H195.918c-2.881,0-5.224-2.344-5.224-5.224s2.344-5.224,5.224-5.224h120.163
			c2.881,0,5.224,2.344,5.224,5.224S318.962,470.204,316.081,470.204z M316.081,444.081H195.918c-2.881,0-5.224-2.344-5.224-5.224
			s2.344-5.224,5.224-5.224h120.163c2.881,0,5.224,2.344,5.224,5.224S318.962,444.081,316.081,444.081z M316.081,417.959H195.918
			c-2.881,0-5.224-2.344-5.224-5.224c0-2.881,2.344-5.224,5.224-5.224h120.163c2.881,0,5.224,2.344,5.224,5.224
			C321.306,415.615,318.962,417.959,316.081,417.959z M226.22,391.836V260.179c0-2.305,1.875-4.18,4.18-4.18s4.18,1.875,4.18,4.18
			v131.657H226.22z M277.42,391.836V260.179c0-2.305,1.875-4.18,4.18-4.18s4.18,1.875,4.18,4.18v131.657H277.42z M398.496,262.629
			c-14.018,24.189-34.112,44.566-58.109,58.928c-18.216,10.901-29.531,30.721-29.531,51.727v18.552h-9.404V260.179
			c0-10.947-8.906-19.853-19.853-19.853c-10.947,0-19.853,8.906-19.853,19.853v131.657h-11.494V260.179
			c0-10.947-8.906-19.853-19.853-19.853c-10.947,0-19.853,8.906-19.853,19.853v131.657h-9.404v-18.553
			c0-21.035-11.247-40.814-29.353-51.62c-24.116-14.391-44.294-34.845-58.351-59.148c-14.484-25.041-22.095-53.663-22.009-82.775
			c0.269-89.817,73.551-163.417,163.358-164.063c0.41-0.003,0.813-0.005,1.223-0.005c43.741,0,84.876,16.942,115.938,47.781
			c31.356,31.131,48.624,72.608,48.624,116.792C420.571,209.222,412.938,237.71,398.496,262.629z"/>
	</g>
</g>
<g>
</g>
<g>
</g>
<g>
</g>
<g>
</g>
<g>
</g>
<g>
</g>
<g>
</g>
<g>
</g>
<g>
</g>
<g>
</g>
<g>
</g>
<g>
</g>
<g>
</g>
<g>
</g>
<g>
</g>
</svg>
