<?xml version="1.0" encoding="UTF-8" standalone="no"?>
<!-- Created with Inkscape (http://www.inkscape.org/) -->

<svg
   xmlns:dc="http://purl.org/dc/elements/1.1/"
   xmlns:cc="http://creativecommons.org/ns#"
   xmlns:rdf="http://www.w3.org/1999/02/22-rdf-syntax-ns#"
   xmlns:svg="http://www.w3.org/2000/svg"
   xmlns="http://www.w3.org/2000/svg"
   xmlns:sodipodi="http://sodipodi.sourceforge.net/DTD/sodipodi-0.dtd"
   xmlns:inkscape="http://www.inkscape.org/namespaces/inkscape"
   width="102.4"
   height="102.4"
   id="svg4874"
   version="1.1"
   inkscape:version="0.92.1 r15371"
   viewBox="0 0 96 96.000001"
   sodipodi:docname="torch-on-new.svg">
  <defs
     id="defs4876" />
  <sodipodi:namedview
     id="base"
     pagecolor="#ffffff"
     bordercolor="#666666"
     borderopacity="1.0"
     inkscape:pageopacity="0.0"
     inkscape:pageshadow="2"
     inkscape:zoom="1.8337812"
     inkscape:cx="47.154766"
     inkscape:cy="13.557026"
     inkscape:document-units="px"
     inkscape:current-layer="g4778"
     showgrid="true"
     showborder="true"
     fit-margin-top="0"
     fit-margin-left="0"
     fit-margin-right="0"
     fit-margin-bottom="0"
     inkscape:snap-bbox="true"
     inkscape:bbox-paths="true"
     inkscape:bbox-nodes="true"
     inkscape:snap-bbox-edge-midpoints="true"
     inkscape:snap-bbox-midpoints="true"
     inkscape:object-paths="true"
     inkscape:snap-intersection-paths="true"
     inkscape:object-nodes="true"
     inkscape:snap-smooth-nodes="true"
     inkscape:snap-midpoints="true"
     inkscape:snap-object-midpoints="true"
     inkscape:snap-center="true"
     showguides="true"
     inkscape:guide-bbox="true"
     inkscape:snap-global="true"
     inkscape:window-width="1366"
     inkscape:window-height="744"
     inkscape:window-x="0"
     inkscape:window-y="24"
     inkscape:window-maximized="1">
    <inkscape:grid
       type="xygrid"
       id="grid5451"
       empspacing="8"
       originx="0"
       originy="0"
       spacingx="1"
       spacingy="1" />
    <sodipodi:guide
       orientation="1,0"
       position="7.9999999,-8"
       id="guide4063"
       inkscape:locked="false" />
    <sodipodi:guide
       orientation="1,0"
       position="3.9999999,-8"
       id="guide4065"
       inkscape:locked="false" />
    <sodipodi:guide
       orientation="0,1"
       position="200,88"
       id="guide4067"
       inkscape:locked="false" />
    <sodipodi:guide
       orientation="0,1"
       position="-7.9999999,92"
       id="guide4069"
       inkscape:locked="false" />
    <sodipodi:guide
       orientation="0,1"
       position="104,3.9999999"
       id="guide4071"
       inkscape:locked="false" />
    <sodipodi:guide
       orientation="0,1"
       position="-4.9999999,8"
       id="guide4073"
       inkscape:locked="false" />
    <sodipodi:guide
       orientation="1,0"
       position="91.999999,-8"
       id="guide4075"
       inkscape:locked="false" />
    <sodipodi:guide
       orientation="1,0"
       position="87.999999,-8"
       id="guide4077"
       inkscape:locked="false" />
    <sodipodi:guide
       orientation="0,1"
       position="-7.9999999,84"
       id="guide4074"
       inkscape:locked="false" />
    <sodipodi:guide
       orientation="1,0"
       position="12,-8"
       id="guide4076"
       inkscape:locked="false" />
    <sodipodi:guide
       orientation="1,0"
       position="83.999999,-9"
       id="guide4080"
       inkscape:locked="false" />
    <sodipodi:guide
       position="47.999999,-8"
       orientation="1,0"
       id="guide4170"
       inkscape:locked="false" />
    <sodipodi:guide
       position="-7.9999999,47.999999"
       orientation="0,1"
       id="guide4172"
       inkscape:locked="false" />
  </sodipodi:namedview>
  <metadata
     id="metadata4879">
    <rdf:RDF>
      <cc:Work
         rdf:about="">
        <dc:format>image/svg+xml</dc:format>
        <dc:type
           rdf:resource="http://purl.org/dc/dcmitype/StillImage" />
        <dc:title />
      </cc:Work>
    </rdf:RDF>
  </metadata>
  <g
     inkscape:label="Layer 1"
     inkscape:groupmode="layer"
     id="layer1"
     transform="translate(67.857146,-78.50504)">
    <g
       transform="matrix(0,-1,-1,0,373.50506,516.50504)"
       id="g4845"
       style="display:inline">
      <g
         inkscape:export-ydpi="90"
         inkscape:export-xdpi="90"
         inkscape:export-filename="next01.png"
         transform="matrix(-0.9996045,0,0,1,575.94296,-611.00001)"
         id="g4778"
         inkscape:label="Layer 1">
        <g
           id="g4575">
          <rect
             style="color:#000000;display:inline;overflow:visible;visibility:visible;fill:none;stroke:none;stroke-width:4;marker:none;enable-background:accumulate"
             id="rect4782"
             width="96.037987"
             height="96"
             x="137.99754"
             y="956.36218" />
          <path
             style="fill:#808080;fill-opacity:1;stroke-width:0.1430625"
             id="path874"
             d="m 164.37613,986.19838 c -4.87825,4.9118 -7.53373,11.42615 -7.48722,18.35362 0.10131,14.0691 11.63543,25.5493 25.71198,25.5914 4.56174,0.014 9.04806,-1.1791 12.9739,-3.4493 3.80736,-2.2014 7.01174,-5.3615 9.26642,-9.1379 1.14358,-1.9155 3.236,-3.1056 5.46049,-3.1056 h 3.05942 c 0.51813,0.892 1.4817,1.4946 2.58565,1.4946 0.70701,0 1.3565,-0.2477 1.86891,-0.6594 0.51241,0.4117 1.1619,0.6594 1.86891,0.6594 0.70701,0 1.3565,-0.2477 1.86891,-0.6594 0.51241,0.4117 1.1619,0.6594 1.86891,0.6594 1.64883,0 2.99031,-1.341 2.99031,-2.9891 v -1.1094 l 3.73796,-1.4947 v -11.97983 l -3.73782,-1.49457 v -1.10923 c 0,-1.64818 -1.34147,-2.98913 -2.99031,-2.98913 -0.70701,0 -1.3565,0.24773 -1.86891,0.65939 -0.51241,-0.41166 -1.1619,-0.65939 -1.86891,-0.65939 -0.70701,0 -1.3565,0.24773 -1.86891,0.65939 -0.51241,-0.41166 -1.1619,-0.65939 -1.86891,-0.65939 -1.10409,0 -2.0678,0.60261 -2.58565,1.49456 h -3.05928 c -2.22134,0 -4.3202,-1.20062 -5.47723,-3.1333 -2.2501,-3.75808 -5.44231,-6.90469 -9.23193,-9.10013 -3.90709,-2.26336 -8.37224,-3.45942 -12.91309,-3.45942 -6.92445,0 -13.42478,2.70521 -18.3036,7.61743 z m 63.53174,13.69181 v 8.94411 l -1.49515,0.5979 v -10.13975 z m -3.73781,-4.12168 v 17.18739 c 0,0.4121 -0.33541,0.7473 -0.74751,0.7473 -0.4121,0 -0.74751,-0.3353 -0.74751,-0.7473 v -17.18739 c 0,-0.41208 0.33541,-0.74721 0.74751,-0.74721 0.4121,0 0.74751,0.33513 0.74751,0.74721 z m -3.73797,0 v 17.18739 c 0,0.4121 -0.3354,0.7473 -0.7475,0.7473 -0.41211,0 -0.74751,-0.3353 -0.74751,-0.7473 v -17.18739 c 0,-0.41208 0.3354,-0.74721 0.74751,-0.74721 0.4121,0 0.7475,0.33513 0.7475,0.74721 z m -3.73781,0 v 17.18739 c 0,0.4121 -0.33541,0.7473 -0.74751,0.7473 -0.41225,0 -0.74751,-0.3353 -0.74751,-0.7473 v -17.18739 c 0,-0.41208 0.33541,-0.74721 0.74751,-0.74721 0.4121,-1.4e-4 0.74751,0.33513 0.74751,0.74721 z m -3.73796,12.85319 h -18.83891 c -0.32982,0 -0.59812,-0.2682 -0.59812,-0.5979 0,-0.3297 0.2683,-0.5979 0.59812,-0.5979 h 18.83891 z m 0,-7.3233 h -18.83891 c -0.32982,0 -0.59812,-0.2682 -0.59812,-0.5979 0,-0.3297 0.2683,-0.5979 0.59812,-0.5979 h 18.83891 z m -18.48833,-17.31805 c 3.46122,2.00505 6.37698,4.87918 8.43205,8.31157 1.55983,2.60552 4.39589,4.22395 7.40166,4.22395 h 2.65462 v 1.34509 h -18.83891 c -1.56642,0 -2.84078,1.27386 -2.84078,2.83964 0,1.5658 1.27436,2.8397 2.84078,2.8397 h 18.83891 v 1.644 h -18.83891 c -1.56642,0 -2.84078,1.2739 -2.84078,2.8397 0,1.5658 1.27436,2.8396 2.84078,2.8396 h 18.83891 v 1.3451 h -2.65477 c -3.00991,0 -5.8401,1.6087 -7.38634,4.1985 -2.05922,3.4494 -4.986,6.3356 -8.46354,8.3462 -3.58314,2.0717 -7.67868,3.1603 -11.84434,3.148 -12.85199,-0.038 -23.38347,-10.5203 -23.4759,-23.3657 -4.6e-4,-0.059 -5.5e-4,-0.1163 -5.5e-4,-0.175 0,-6.25644 2.42424,-12.14015 6.83702,-16.58308 4.45456,-4.48498 10.38954,-6.95489 16.71186,-6.95489 4.14634,1.4e-4 8.22271,1.09192 11.78839,3.15762 z"
             inkscape:connector-curvature="0" />
          <path
             inkscape:connector-curvature="0"
             id="path5579"
             style="font-style:normal;font-variant:normal;font-weight:normal;font-stretch:normal;font-size:15px;line-height:125%;font-family:Ubuntu;-inkscape-font-specification:Ubuntu;text-align:end;letter-spacing:0px;word-spacing:0px;writing-mode:lr-tb;text-anchor:end;display:inline;fill:#808080;fill-opacity:1;stroke:none;stroke-width:0.9375"
             d="m 142.24922,1001.5497 h 2.17266 q 2.12921,0 4.47572,0.348 2.30302,0.3479 4.60607,0.8698 v 3.1894 q -2.30305,0.522 -4.60607,0.8699 -2.34651,0.3479 -4.51916,0.3479 h -2.12922 z"
             inkscape:transform-center-y="-40.000019" />
          <path
             inkscape:transform-center-y="-34.965771"
             d="m 149.43597,980.364 1.88158,1.08591 q 1.84395,1.06418 3.70205,2.5383 1.82044,1.45236 3.55388,3.05542 l -1.59536,2.76215 q -2.25555,-0.69907 -4.42405,-1.54883 -2.20619,-0.87147 -4.08776,-1.95736 l -1.84396,-1.06419 z"
             style="font-style:normal;font-variant:normal;font-weight:normal;font-stretch:normal;font-size:15px;line-height:125%;font-family:Ubuntu;-inkscape-font-specification:Ubuntu;text-align:end;letter-spacing:0px;word-spacing:0px;writing-mode:lr-tb;text-anchor:end;display:inline;fill:#808080;fill-opacity:1;stroke:none;stroke-width:0.9375"
             id="path4702"
             inkscape:connector-curvature="0"
             inkscape:transform-center-x="-20.562475" />
          <path
             inkscape:transform-center-x="-34.965775"
             inkscape:connector-curvature="0"
             id="path4704"
             style="font-style:normal;font-variant:normal;font-weight:normal;font-stretch:normal;font-size:15px;line-height:125%;font-family:Ubuntu;-inkscape-font-specification:Ubuntu;text-align:end;letter-spacing:0px;word-spacing:0px;writing-mode:lr-tb;text-anchor:end;display:inline;fill:#808080;fill-opacity:1;stroke:none;stroke-width:0.9375"
             d="m 166.25692,965.6086 1.08633,1.88084 q 1.06461,1.84323 1.93642,4.04853 0.85007,2.16765 1.54943,4.4223 l -2.76324,1.59473 q -1.60369,-1.73274 -3.05662,-3.55248 -1.47471,-1.85736 -2.56103,-3.73819 l -1.06462,-1.84322 z"
             inkscape:transform-center-y="-20.56248" />
          <path
             d="m 188.20491,961.23719 v 2.17181 q 0,2.12837 -0.34808,4.47395 -0.34806,2.30211 -0.87018,4.60424 h -3.19072 q -0.52212,-2.30212 -0.87017,-4.60424 -0.34807,-2.34558 -0.34808,-4.51738 l -10e-6,-2.12838 z"
             style="font-style:normal;font-variant:normal;font-weight:normal;font-stretch:normal;font-size:15px;line-height:125%;font-family:Ubuntu;-inkscape-font-specification:Ubuntu;text-align:end;letter-spacing:0px;word-spacing:0px;writing-mode:lr-tb;text-anchor:end;display:inline;fill:#808080;fill-opacity:1;stroke:none;stroke-width:0.9375"
             id="path4706"
             inkscape:connector-curvature="0"
             inkscape:transform-center-x="-40.00002" />
          <path
             inkscape:transform-center-x="-34.965775"
             inkscape:connector-curvature="0"
             id="path4708"
             style="font-style:normal;font-variant:normal;font-weight:normal;font-stretch:normal;font-size:15px;line-height:125%;font-family:Ubuntu;-inkscape-font-specification:Ubuntu;text-align:end;letter-spacing:0px;word-spacing:0px;writing-mode:lr-tb;text-anchor:end;display:inline;fill:#808080;fill-opacity:1;stroke:none;stroke-width:0.9375"
             d="m 209.399,968.42111 -1.08634,1.88083 q -1.0646,1.84323 -2.53931,3.70059 -1.45293,1.81972 -3.05662,3.55247 l -2.76325,-1.59473 q 0.69935,-2.25465 1.54945,-4.4223 0.87182,-2.2053 1.95813,-4.08614 l 1.0646,-1.84323 z"
             inkscape:transform-center-y="20.56248" />
          <path
             inkscape:transform-center-y="-34.965771"
             d="m 146.62235,1023.489 1.88158,-1.0859 q 1.84395,-1.0642 4.05014,-1.9356 2.1685,-0.8498 4.42405,-1.5489 l 1.59536,2.7622 q -1.73344,1.603 -3.55388,3.0554 -1.8581,1.4741 -3.73967,2.56 l -1.84396,1.0642 z"
             style="font-style:normal;font-variant:normal;font-weight:normal;font-stretch:normal;font-size:15px;line-height:125%;font-family:Ubuntu;-inkscape-font-specification:Ubuntu;text-align:end;letter-spacing:0px;word-spacing:0px;writing-mode:lr-tb;text-anchor:end;display:inline;fill:#808080;fill-opacity:1;stroke:none;stroke-width:0.9375"
             id="path4710"
             inkscape:connector-curvature="0"
             inkscape:transform-center-x="20.562475" />
          <path
             inkscape:transform-center-x="34.965775"
             inkscape:connector-curvature="0"
             id="path4712"
             style="font-style:normal;font-variant:normal;font-weight:normal;font-stretch:normal;font-size:15px;line-height:125%;font-family:Ubuntu;-inkscape-font-specification:Ubuntu;text-align:end;letter-spacing:0px;word-spacing:0px;writing-mode:lr-tb;text-anchor:end;display:inline;fill:#808080;fill-opacity:1;stroke:none;stroke-width:0.9375"
             d="m 161.38359,1040.3033 1.08634,-1.8808 q 1.0646,-1.8432 2.53931,-3.7006 1.45293,-1.8197 3.05662,-3.5525 l 2.76324,1.5947 q -0.69936,2.2547 -1.54943,4.4224 -0.87181,2.2053 -1.95814,4.0861 l -1.06461,1.8432 z"
             inkscape:transform-center-y="-20.56248" />
          <path
             d="m 182.57767,1047.4872 10e-6,-2.1718 q 1e-5,-2.1283 0.34808,-4.4739 0.34805,-2.3021 0.87017,-4.6043 h 3.19072 q 0.52212,2.3022 0.87018,4.6043 0.34808,2.3455 0.34808,4.5174 v 2.1283 z"
             style="font-style:normal;font-variant:normal;font-weight:normal;font-stretch:normal;font-size:15px;line-height:125%;font-family:Ubuntu;-inkscape-font-specification:Ubuntu;text-align:end;letter-spacing:0px;word-spacing:0px;writing-mode:lr-tb;text-anchor:end;display:inline;fill:#808080;fill-opacity:1;stroke:none;stroke-width:0.9375"
             id="path4714"
             inkscape:connector-curvature="0"
             inkscape:transform-center-x="40.00002" />
          <path
             inkscape:transform-center-x="34.965775"
             inkscape:connector-curvature="0"
             id="path4716"
             style="font-style:normal;font-variant:normal;font-weight:normal;font-stretch:normal;font-size:15px;line-height:125%;font-family:Ubuntu;-inkscape-font-specification:Ubuntu;text-align:end;letter-spacing:0px;word-spacing:0px;writing-mode:lr-tb;text-anchor:end;display:inline;fill:#808080;fill-opacity:1;stroke:none;stroke-width:0.9375"
             d="m 204.52566,1043.1158 -1.08632,-1.8808 q -1.06459,-1.8432 -1.93641,-4.0486 -0.8501,-2.1676 -1.54945,-4.4223 l 2.76325,-1.5947 q 1.60369,1.7328 3.05662,3.5525 1.47471,1.8573 2.56104,3.7382 l 1.06461,1.8432 z"
             inkscape:transform-center-y="20.56248" />
          <path
             d="m 192.68583,1003.4181 -13.22744,6.0441 v -4.5889 l -9.44819,0.4341 13.22746,-6.04517 v 4.65227 z"
             inkscape:connector-curvature="0"
             sodipodi:nodetypes="ccccccc"
             id="path1026"
             style="display:inline;fill:#808080;stroke-width:0.62962914" />
        </g>
      </g>
    </g>
  </g>
</svg>
