<?xml version="1.0" encoding="UTF-8" standalone="no"?>
<!-- Created with Inkscape (http://www.inkscape.org/) -->

<svg
   xmlns:dc="http://purl.org/dc/elements/1.1/"
   xmlns:cc="http://creativecommons.org/ns#"
   xmlns:rdf="http://www.w3.org/1999/02/22-rdf-syntax-ns#"
   xmlns:svg="http://www.w3.org/2000/svg"
   xmlns="http://www.w3.org/2000/svg"
   xmlns:sodipodi="http://sodipodi.sourceforge.net/DTD/sodipodi-0.dtd"
   xmlns:inkscape="http://www.inkscape.org/namespaces/inkscape"
   width="102.4"
   height="102.4"
   id="svg4874"
   version="1.1"
   inkscape:version="0.92.1 r15371"
   viewBox="0 0 96 96.000001"
   sodipodi:docname="torch-off-new.svg">
  <defs
     id="defs4876" />
  <sodipodi:namedview
     id="base"
     pagecolor="#ffffff"
     bordercolor="#666666"
     borderopacity="1.0"
     inkscape:pageopacity="0.0"
     inkscape:pageshadow="2"
     inkscape:zoom="1.8337812"
     inkscape:cx="47.154766"
     inkscape:cy="13.557026"
     inkscape:document-units="px"
     inkscape:current-layer="g4778"
     showgrid="true"
     showborder="true"
     fit-margin-top="0"
     fit-margin-left="0"
     fit-margin-right="0"
     fit-margin-bottom="0"
     inkscape:snap-bbox="true"
     inkscape:bbox-paths="true"
     inkscape:bbox-nodes="true"
     inkscape:snap-bbox-edge-midpoints="true"
     inkscape:snap-bbox-midpoints="true"
     inkscape:object-paths="true"
     inkscape:snap-intersection-paths="true"
     inkscape:object-nodes="true"
     inkscape:snap-smooth-nodes="true"
     inkscape:snap-midpoints="true"
     inkscape:snap-object-midpoints="true"
     inkscape:snap-center="true"
     showguides="true"
     inkscape:guide-bbox="true"
     inkscape:snap-global="true"
     inkscape:window-width="1366"
     inkscape:window-height="744"
     inkscape:window-x="0"
     inkscape:window-y="24"
     inkscape:window-maximized="1">
    <inkscape:grid
       type="xygrid"
       id="grid5451"
       empspacing="8"
       originx="0"
       originy="0"
       spacingx="1"
       spacingy="1" />
    <sodipodi:guide
       orientation="1,0"
       position="7.9999999,-8"
       id="guide4063"
       inkscape:locked="false" />
    <sodipodi:guide
       orientation="1,0"
       position="3.9999999,-8"
       id="guide4065"
       inkscape:locked="false" />
    <sodipodi:guide
       orientation="0,1"
       position="200,88"
       id="guide4067"
       inkscape:locked="false" />
    <sodipodi:guide
       orientation="0,1"
       position="-7.9999999,92"
       id="guide4069"
       inkscape:locked="false" />
    <sodipodi:guide
       orientation="0,1"
       position="104,3.9999999"
       id="guide4071"
       inkscape:locked="false" />
    <sodipodi:guide
       orientation="0,1"
       position="-4.9999999,8"
       id="guide4073"
       inkscape:locked="false" />
    <sodipodi:guide
       orientation="1,0"
       position="91.999999,-8"
       id="guide4075"
       inkscape:locked="false" />
    <sodipodi:guide
       orientation="1,0"
       position="87.999999,-8"
       id="guide4077"
       inkscape:locked="false" />
    <sodipodi:guide
       orientation="0,1"
       position="-7.9999999,84"
       id="guide4074"
       inkscape:locked="false" />
    <sodipodi:guide
       orientation="1,0"
       position="12,-8"
       id="guide4076"
       inkscape:locked="false" />
    <sodipodi:guide
       orientation="1,0"
       position="83.999999,-9"
       id="guide4080"
       inkscape:locked="false" />
    <sodipodi:guide
       position="47.999999,-8"
       orientation="1,0"
       id="guide4170"
       inkscape:locked="false" />
    <sodipodi:guide
       position="-7.9999999,47.999999"
       orientation="0,1"
       id="guide4172"
       inkscape:locked="false" />
  </sodipodi:namedview>
  <metadata
     id="metadata4879">
    <rdf:RDF>
      <cc:Work
         rdf:about="">
        <dc:format>image/svg+xml</dc:format>
        <dc:type
           rdf:resource="http://purl.org/dc/dcmitype/StillImage" />
        <dc:title />
      </cc:Work>
    </rdf:RDF>
  </metadata>
  <g
     inkscape:label="Layer 1"
     inkscape:groupmode="layer"
     id="layer1"
     transform="translate(67.857146,-78.50504)">
    <g
       transform="matrix(0,-1,-1,0,373.50506,516.50504)"
       id="g4845"
       style="display:inline">
      <g
         inkscape:export-ydpi="90"
         inkscape:export-xdpi="90"
         inkscape:export-filename="next01.png"
         transform="matrix(-0.9996045,0,0,1,575.94296,-611.00001)"
         id="g4778"
         inkscape:label="Layer 1">
        <path
           inkscape:connector-curvature="0"
           d="m 164.37613,986.19838 c -4.87825,4.9118 -7.53373,11.42615 -7.48722,18.35362 0.10131,14.0691 11.63543,25.5493 25.71198,25.5914 4.56174,0.014 9.04806,-1.1791 12.9739,-3.4493 3.80736,-2.2014 7.01174,-5.3615 9.26642,-9.1379 1.14358,-1.9155 3.236,-3.1056 5.46049,-3.1056 h 3.05942 c 0.51813,0.892 1.4817,1.4946 2.58565,1.4946 0.70701,0 1.3565,-0.2477 1.86891,-0.6594 0.51241,0.4117 1.1619,0.6594 1.86891,0.6594 0.70701,0 1.3565,-0.2477 1.86891,-0.6594 0.51241,0.4117 1.1619,0.6594 1.86891,0.6594 1.64883,0 2.99031,-1.341 2.99031,-2.9891 v -1.1094 l 3.73796,-1.4947 v -11.97983 l -3.73782,-1.49457 v -1.10923 c 0,-1.64818 -1.34147,-2.98913 -2.99031,-2.98913 -0.70701,0 -1.3565,0.24773 -1.86891,0.65939 -0.51241,-0.41166 -1.1619,-0.65939 -1.86891,-0.65939 -0.70701,0 -1.3565,0.24773 -1.86891,0.65939 -0.51241,-0.41166 -1.1619,-0.65939 -1.86891,-0.65939 -1.10409,0 -2.0678,0.60261 -2.58565,1.49456 h -3.05928 c -2.22134,0 -4.3202,-1.20062 -5.47723,-3.1333 -2.2501,-3.75808 -5.44231,-6.90469 -9.23193,-9.10013 -3.90709,-2.26336 -8.37224,-3.45942 -12.91309,-3.45942 -6.92445,0 -13.42478,2.70521 -18.3036,7.61743 z m 63.53174,13.69181 v 8.94411 l -1.49515,0.5979 v -10.13975 z m -3.73781,-4.12168 v 17.18739 c 0,0.4121 -0.33541,0.7473 -0.74751,0.7473 -0.4121,0 -0.74751,-0.3353 -0.74751,-0.7473 v -17.18739 c 0,-0.41208 0.33541,-0.74721 0.74751,-0.74721 0.4121,0 0.74751,0.33513 0.74751,0.74721 z m -3.73797,0 v 17.18739 c 0,0.4121 -0.3354,0.7473 -0.7475,0.7473 -0.41211,0 -0.74751,-0.3353 -0.74751,-0.7473 v -17.18739 c 0,-0.41208 0.3354,-0.74721 0.74751,-0.74721 0.4121,0 0.7475,0.33513 0.7475,0.74721 z m -3.73781,0 v 17.18739 c 0,0.4121 -0.33541,0.7473 -0.74751,0.7473 -0.41225,0 -0.74751,-0.3353 -0.74751,-0.7473 v -17.18739 c 0,-0.41208 0.33541,-0.74721 0.74751,-0.74721 0.4121,-1.4e-4 0.74751,0.33513 0.74751,0.74721 z m -3.73796,12.85319 h -18.83891 c -0.32982,0 -0.59812,-0.2682 -0.59812,-0.5979 0,-0.3297 0.2683,-0.5979 0.59812,-0.5979 h 18.83891 z m 0,-7.3233 h -18.83891 c -0.32982,0 -0.59812,-0.2682 -0.59812,-0.5979 0,-0.3297 0.2683,-0.5979 0.59812,-0.5979 h 18.83891 z m -18.48833,-17.31805 c 3.46122,2.00505 6.37698,4.87918 8.43205,8.31157 1.55983,2.60552 4.39589,4.22395 7.40166,4.22395 h 2.65462 v 1.34509 h -18.83891 c -1.56642,0 -2.84078,1.27386 -2.84078,2.83964 0,1.5658 1.27436,2.8397 2.84078,2.8397 h 18.83891 v 1.644 h -18.83891 c -1.56642,0 -2.84078,1.2739 -2.84078,2.8397 0,1.5658 1.27436,2.8396 2.84078,2.8396 h 18.83891 v 1.3451 h -2.65477 c -3.00991,0 -5.8401,1.6087 -7.38634,4.1985 -2.05922,3.4494 -4.986,6.3356 -8.46354,8.3462 -3.58314,2.0717 -7.67868,3.1603 -11.84434,3.148 -12.85199,-0.038 -23.38347,-10.5203 -23.4759,-23.3657 -4.6e-4,-0.059 -5.5e-4,-0.1163 -5.5e-4,-0.175 0,-6.25644 2.42424,-12.14015 6.83702,-16.58308 4.45456,-4.48498 10.38954,-6.95489 16.71186,-6.95489 4.14634,1.4e-4 8.22271,1.09192 11.78839,3.15762 z"
           id="path874"
           style="fill:#808080;fill-opacity:1;stroke-width:0.1430625" />
      </g>
    </g>
  </g>
</svg>
